<svg width="194" height="44" viewBox="0 0 194 44" fill="none" xmlns="http://www.w3.org/2000/svg">
<path d="M0.992 34C0.672 34 0.512 33.84 0.512 33.52V0.879997C0.512 0.559998 0.672 0.399998 0.992 0.399998H3.44C3.76 0.399998 3.92 0.559998 3.92 0.879997V33.52C3.92 33.84 3.76 34 3.44 34H0.992ZM27.3339 0.879997C27.3339 0.559998 27.4939 0.399998 27.8139 0.399998H30.2619C30.5819 0.399998 30.7419 0.559998 30.7419 0.879997V33.52C30.7419 33.84 30.5819 34 30.2619 34H27.8139C27.4939 34 27.3339 33.84 27.3339 33.52V31.504C27.3339 31.44 27.3019 31.408 27.2379 31.408C27.2059 31.376 27.1579 31.392 27.0939 31.456C26.3899 32.384 25.5099 33.104 24.4539 33.616C23.4299 34.128 22.2779 34.384 20.9979 34.384C18.7579 34.384 16.8699 33.808 15.3339 32.656C13.8299 31.504 12.7899 29.936 12.2139 27.952C11.7659 26.512 11.5419 24.48 11.5419 21.856C11.5419 19.2 11.7339 17.216 12.1179 15.904C12.6939 13.856 13.7499 12.256 15.2859 11.104C16.8219 9.92 18.7259 9.328 20.9979 9.328C22.2459 9.328 23.3979 9.584 24.4539 10.096C25.5099 10.576 26.3899 11.28 27.0939 12.208C27.1579 12.272 27.2059 12.304 27.2379 12.304C27.3019 12.272 27.3339 12.224 27.3339 12.16V0.879997ZM26.4699 27.712C26.7579 27.072 26.9659 26.32 27.0939 25.456C27.2219 24.592 27.2859 23.392 27.2859 21.856C27.2859 20.32 27.2219 19.12 27.0939 18.256C26.9659 17.36 26.7419 16.576 26.4219 15.904C26.0379 14.816 25.3979 13.952 24.5019 13.312C23.6379 12.64 22.5979 12.304 21.3819 12.304C20.1019 12.304 18.9979 12.624 18.0699 13.264C17.1419 13.904 16.4699 14.752 16.0539 15.808C15.6699 16.512 15.3819 17.312 15.1899 18.208C15.0299 19.072 14.9499 20.288 14.9499 21.856C14.9499 23.36 15.0139 24.544 15.1419 25.408C15.2699 26.24 15.4939 26.992 15.8139 27.664C16.1979 28.816 16.8699 29.728 17.8299 30.4C18.8219 31.072 19.9899 31.408 21.3339 31.408C22.6139 31.408 23.6859 31.072 24.5499 30.4C25.4139 29.728 26.0539 28.832 26.4699 27.712ZM57.089 17.776C57.217 18.672 57.281 19.792 57.281 21.136V22.672C57.281 22.992 57.121 23.152 56.801 23.152H41.297C41.169 23.152 41.105 23.216 41.105 23.344C41.169 25.104 41.265 26.24 41.393 26.752C41.745 28.192 42.497 29.328 43.649 30.16C44.801 30.992 46.273 31.408 48.065 31.408C49.409 31.408 50.593 31.104 51.617 30.496C52.641 29.888 53.441 29.024 54.017 27.904C54.209 27.616 54.433 27.552 54.689 27.712L56.561 28.816C56.817 28.976 56.881 29.2 56.753 29.488C55.953 31.024 54.753 32.24 53.153 33.136C51.553 34 49.713 34.432 47.633 34.432C45.361 34.4 43.457 33.856 41.921 32.8C40.385 31.744 39.281 30.272 38.609 28.384C38.033 26.848 37.745 24.64 37.745 21.76C37.745 20.416 37.761 19.328 37.793 18.496C37.857 17.632 37.985 16.864 38.177 16.192C38.721 14.112 39.809 12.448 41.441 11.2C43.105 9.952 45.105 9.328 47.441 9.328C50.353 9.328 52.593 10.064 54.161 11.536C55.729 13.008 56.705 15.088 57.089 17.776ZM47.441 12.304C45.873 12.304 44.561 12.72 43.505 13.552C42.481 14.352 41.809 15.44 41.489 16.816C41.297 17.488 41.169 18.576 41.105 20.08C41.105 20.208 41.169 20.272 41.297 20.272H53.729C53.857 20.272 53.921 20.208 53.921 20.08C53.857 18.64 53.761 17.616 53.633 17.008C53.281 15.568 52.561 14.432 51.473 13.6C50.417 12.736 49.073 12.304 47.441 12.304ZM74.1388 9.376C76.6988 9.376 78.7308 10.128 80.2348 11.632C81.7708 13.136 82.5388 15.152 82.5388 17.68V33.52C82.5388 33.84 82.3788 34 82.0588 34H79.6108C79.2908 34 79.1308 33.84 79.1308 33.52V18.352C79.1308 16.592 78.5868 15.152 77.4988 14.032C76.4428 12.912 75.0668 12.352 73.3708 12.352C71.6108 12.352 70.1868 12.896 69.0988 13.984C68.0108 15.072 67.4668 16.496 67.4668 18.256V33.52C67.4668 33.84 67.3068 34 66.9868 34H64.5388C64.2188 34 64.0588 33.84 64.0588 33.52V10.192C64.0588 9.872 64.2188 9.712 64.5388 9.712H66.9868C67.3068 9.712 67.4668 9.872 67.4668 10.192V12.256C67.4668 12.32 67.4828 12.368 67.5148 12.4C67.5788 12.432 67.6268 12.416 67.6588 12.352C69.0668 10.368 71.2268 9.376 74.1388 9.376ZM102.75 14.176C102.75 14.336 102.686 14.48 102.558 14.608C102.462 14.704 102.334 14.752 102.174 14.752H97.5658C97.4058 14.752 97.3258 14.832 97.3258 14.992V25.168C97.3258 26.224 97.5338 27.008 97.9498 27.52C98.3978 28.032 99.1018 28.288 100.062 28.288H101.646C101.806 28.288 101.934 28.352 102.03 28.48C102.158 28.576 102.222 28.704 102.222 28.864V33.424C102.222 33.776 102.03 33.984 101.646 34.048C100.302 34.112 99.3418 34.144 98.7657 34.144C96.1098 34.144 94.1258 33.712 92.8138 32.848C91.5018 31.952 90.8298 30.288 90.7978 27.856V14.992C90.7978 14.832 90.7178 14.752 90.5578 14.752H87.8218C87.6618 14.752 87.5178 14.704 87.3898 14.608C87.2938 14.48 87.2458 14.336 87.2458 14.176V9.904C87.2458 9.744 87.2938 9.616 87.3898 9.52C87.5178 9.392 87.6618 9.328 87.8218 9.328H90.5578C90.7178 9.328 90.7978 9.248 90.7978 9.088V3.376C90.7978 3.216 90.8458 3.088 90.9418 2.992C91.0698 2.864 91.2138 2.8 91.3738 2.8H96.7498C96.9098 2.8 97.0378 2.864 97.1338 2.992C97.2618 3.088 97.3258 3.216 97.3258 3.376V9.088C97.3258 9.248 97.4058 9.328 97.5658 9.328H102.174C102.334 9.328 102.462 9.392 102.558 9.52C102.686 9.616 102.75 9.744 102.75 9.904V14.176ZM128.336 19.12C128.528 20.336 128.592 21.696 128.528 23.2C128.496 23.584 128.288 23.776 127.904 23.776H113.072C112.88 23.776 112.816 23.856 112.88 24.016C112.976 24.656 113.152 25.296 113.408 25.936C114.24 27.728 115.936 28.624 118.496 28.624C120.544 28.592 122.16 27.76 123.344 26.128C123.472 25.936 123.616 25.84 123.776 25.84C123.872 25.84 123.984 25.904 124.112 26.032L127.568 29.44C127.728 29.6 127.808 29.744 127.808 29.872C127.808 29.936 127.744 30.064 127.616 30.256C126.56 31.568 125.2 32.592 123.536 33.328C121.872 34.032 120.048 34.384 118.064 34.384C115.312 34.384 112.976 33.76 111.056 32.512C109.168 31.264 107.808 29.52 106.976 27.28C106.304 25.68 105.968 23.584 105.968 20.992C105.968 19.232 106.208 17.68 106.688 16.336C107.424 14.064 108.704 12.256 110.528 10.912C112.384 9.568 114.576 8.896 117.104 8.896C120.304 8.896 122.864 9.824 124.784 11.68C126.736 13.536 127.92 16.016 128.336 19.12ZM117.152 14.752C115.136 14.752 113.808 15.696 113.168 17.584C113.04 18 112.928 18.512 112.832 19.12C112.832 19.28 112.912 19.36 113.072 19.36H121.376C121.568 19.36 121.632 19.28 121.568 19.12C121.408 18.192 121.328 17.744 121.328 17.776C121.04 16.816 120.528 16.08 119.792 15.568C119.088 15.024 118.208 14.752 117.152 14.752ZM142.305 8.944C144.385 8.944 146.241 9.312 147.873 10.048C149.505 10.752 150.769 11.728 151.665 12.976C152.593 14.224 153.057 15.616 153.057 17.152V33.424C153.057 33.584 152.993 33.728 152.865 33.856C152.769 33.952 152.641 34 152.481 34H146.865C146.705 34 146.561 33.952 146.433 33.856C146.337 33.728 146.289 33.584 146.289 33.424V31.84C146.289 31.744 146.257 31.68 146.193 31.648C146.129 31.616 146.065 31.648 146.001 31.744C144.657 33.504 142.497 34.384 139.521 34.384C137.025 34.384 135.009 33.776 133.473 32.56C131.937 31.344 131.169 29.552 131.169 27.184C131.169 24.72 132.033 22.816 133.761 21.472C135.489 20.096 137.953 19.408 141.153 19.408H146.049C146.209 19.408 146.289 19.328 146.289 19.168V18.112C146.289 17.056 145.969 16.24 145.329 15.664C144.689 15.056 143.729 14.752 142.449 14.752C141.457 14.752 140.625 14.928 139.953 15.28C139.313 15.632 138.897 16.128 138.705 16.768C138.609 17.12 138.401 17.28 138.081 17.248L132.273 16.48C131.889 16.416 131.713 16.272 131.745 16.048C131.873 14.704 132.401 13.488 133.329 12.4C134.289 11.312 135.537 10.464 137.073 9.856C138.641 9.248 140.385 8.944 142.305 8.944ZM141.345 29.344C142.721 29.344 143.889 28.976 144.849 28.24C145.809 27.504 146.289 26.56 146.289 25.408V23.68C146.289 23.52 146.209 23.44 146.049 23.44H142.593C141.153 23.44 140.017 23.712 139.185 24.256C138.385 24.8 137.985 25.568 137.985 26.56C137.985 27.424 138.289 28.112 138.897 28.624C139.505 29.104 140.321 29.344 141.345 29.344ZM170.064 12.064C170.064 12.384 169.904 12.544 169.584 12.544H164.16C164.032 12.544 163.968 12.608 163.968 12.736V26.896C163.968 28.432 164.304 29.52 164.976 30.16C165.68 30.768 166.768 31.072 168.24 31.072H169.44C169.76 31.072 169.92 31.232 169.92 31.552V33.52C169.92 33.84 169.76 34 169.44 34C169.056 34.032 168.464 34.048 167.664 34.048C165.36 34.048 163.616 33.616 162.432 32.752C161.248 31.888 160.656 30.288 160.656 27.952V12.736C160.656 12.608 160.592 12.544 160.464 12.544H157.536C157.216 12.544 157.056 12.384 157.056 12.064V10.192C157.056 9.872 157.216 9.712 157.536 9.712H160.464C160.592 9.712 160.656 9.648 160.656 9.52V3.952C160.656 3.632 160.816 3.472 161.136 3.472H163.488C163.808 3.472 163.968 3.632 163.968 3.952V9.52C163.968 9.648 164.032 9.712 164.16 9.712H169.584C169.904 9.712 170.064 9.872 170.064 10.192V12.064ZM175.549 43.6C175.325 43.6 175.213 43.44 175.213 43.12V41.2C175.213 40.88 175.373 40.72 175.693 40.72H175.885C177.133 40.688 178.093 40.496 178.765 40.144C179.469 39.824 180.061 39.2 180.541 38.272C181.053 37.376 181.597 36 182.173 34.144C182.237 34.016 182.237 33.92 182.173 33.856L174.061 10.24L174.013 10.048C174.013 9.824 174.157 9.712 174.445 9.712H176.989C177.277 9.712 177.469 9.84 177.565 10.096L183.805 29.488C183.837 29.552 183.885 29.584 183.949 29.584C184.013 29.584 184.061 29.552 184.093 29.488L190.237 10.096C190.333 9.84 190.525 9.712 190.813 9.712H193.309C193.661 9.712 193.789 9.888 193.693 10.24L184.812 36.112C184.045 38.256 183.325 39.84 182.653 40.864C181.981 41.888 181.133 42.592 180.109 42.976C179.117 43.392 177.709 43.6 175.885 43.6H175.549Z" fill="white"/>
</svg>
