<svg width="52" height="35" viewBox="0 0 52 35" fill="none" xmlns="http://www.w3.org/2000/svg">
<path d="M0.992 34C0.672 34 0.512 33.84 0.512 33.52V0.879997C0.512 0.559998 0.672 0.399998 0.992 0.399998H3.44C3.76 0.399998 3.92 0.559998 3.92 0.879997V33.52C3.92 33.84 3.76 34 3.44 34H0.992ZM27.3339 0.879997C27.3339 0.559998 27.4939 0.399998 27.8139 0.399998H30.2619C30.5819 0.399998 30.7419 0.559998 30.7419 0.879997V33.52C30.7419 33.84 30.5819 34 30.2619 34H27.8139C27.4939 34 27.3339 33.84 27.3339 33.52V31.504C27.3339 31.44 27.3019 31.408 27.2379 31.408C27.2059 31.376 27.1579 31.392 27.0939 31.456C26.3899 32.384 25.5099 33.104 24.4539 33.616C23.4299 34.128 22.2779 34.384 20.9979 34.384C18.7579 34.384 16.8699 33.808 15.3339 32.656C13.8299 31.504 12.7899 29.936 12.2139 27.952C11.7659 26.512 11.5419 24.48 11.5419 21.856C11.5419 19.2 11.7339 17.216 12.1179 15.904C12.6939 13.856 13.7499 12.256 15.2859 11.104C16.8219 9.92 18.7259 9.328 20.9979 9.328C22.2459 9.328 23.3979 9.584 24.4539 10.096C25.5099 10.576 26.3899 11.28 27.0939 12.208C27.1579 12.272 27.2059 12.304 27.2379 12.304C27.3019 12.272 27.3339 12.224 27.3339 12.16V0.879997ZM26.4699 27.712C26.7579 27.072 26.9659 26.32 27.0939 25.456C27.2219 24.592 27.2859 23.392 27.2859 21.856C27.2859 20.32 27.2219 19.12 27.0939 18.256C26.9659 17.36 26.7419 16.576 26.4219 15.904C26.0379 14.816 25.3979 13.952 24.5019 13.312C23.6379 12.64 22.5979 12.304 21.3819 12.304C20.1019 12.304 18.9979 12.624 18.0699 13.264C17.1419 13.904 16.4699 14.752 16.0539 15.808C15.6699 16.512 15.3819 17.312 15.1899 18.208C15.0299 19.072 14.9499 20.288 14.9499 21.856C14.9499 23.36 15.0139 24.544 15.1419 25.408C15.2699 26.24 15.4939 26.992 15.8139 27.664C16.1979 28.816 16.8699 29.728 17.8299 30.4C18.8219 31.072 19.9899 31.408 21.3339 31.408C22.6139 31.408 23.6859 31.072 24.5499 30.4C25.4139 29.728 26.0539 28.832 26.4699 27.712ZM51.281 14.176C51.281 14.336 51.217 14.48 51.089 14.608C50.993 14.704 50.865 14.752 50.705 14.752H46.097C45.937 14.752 45.857 14.832 45.857 14.992V25.168C45.857 26.224 46.065 27.008 46.481 27.52C46.929 28.032 47.633 28.288 48.593 28.288H50.177C50.337 28.288 50.465 28.352 50.561 28.48C50.689 28.576 50.753 28.704 50.753 28.864V33.424C50.753 33.776 50.561 33.984 50.177 34.048C48.833 34.112 47.873 34.144 47.297 34.144C44.641 34.144 42.657 33.712 41.345 32.848C40.033 31.952 39.361 30.288 39.329 27.856V14.992C39.329 14.832 39.249 14.752 39.089 14.752H36.353C36.193 14.752 36.049 14.704 35.921 14.608C35.825 14.48 35.777 14.336 35.777 14.176V9.904C35.777 9.744 35.825 9.616 35.921 9.52C36.049 9.392 36.193 9.328 36.353 9.328H39.089C39.249 9.328 39.329 9.248 39.329 9.088V3.376C39.329 3.216 39.377 3.088 39.473 2.992C39.601 2.864 39.745 2.8 39.905 2.8H45.281C45.441 2.8 45.569 2.864 45.665 2.992C45.793 3.088 45.857 3.216 45.857 3.376V9.088C45.857 9.248 45.937 9.328 46.097 9.328H50.705C50.865 9.328 50.993 9.392 51.089 9.52C51.217 9.616 51.281 9.744 51.281 9.904V14.176Z" fill="#2D1510"/>
</svg>
