<svg viewBox="0 0 2048 1329.1012" xmlns="http://www.w3.org/2000/svg"><path d="M1024 20.527c-392.192 0-710.042 208.69-710.042 464.486v27.238c0 271.566 277.914 491.52 710.042 491.52s710.246-219.954 710.246-491.724v-27.034c0-255.795-318.054-464.486-710.246-464.486zm0 901.12c-377.037 0-682.803-195.584-682.803-436.838S646.963 47.97 1024 47.97s682.803 195.585 682.803 436.84S1401.24 921.646 1024 921.646zm379.904-391.168c-67.38-58.78-223.027-194.15-266.24-225.28-15.612-13.228-33.8-24.038-53.618-31.53l-1.268-.42c-8.07-2.598-17.35-4.096-26.984-4.096h-.052.003c-12.28.164-24.018 2.25-35.003 5.97l.8-.235c-30.57 12.988-56.846 29.938-79.705 50.597l.244-.217-1.433 1.024c-19.397 18.157-42.21 32.953-67.33 43.288l-1.482.54c-7.69 1.815-16.52 2.86-25.595 2.867h-.005c-1.553.13-3.36.205-5.186.205-16.19 0-31.005-5.89-42.418-15.64l.09.074c-1.23-1.435 0-3.892 2.458-7.58l58.982-63.282c46.49-46.49 90.317-90.317 191.283-92.57h5.12c48.377 1.955 93.648 13.222 134.735 32.045l-2.23-.915c52.676 26.934 114.833 42.92 180.677 43.417h.162c72.438-1.28 140.517-18.68 201.205-48.747l-2.754 1.234c-7.78-6.554-15.77-12.902-23.96-19.046-51.116 23.964-110.878 38.414-173.895 39.52l-.39.006c-61.784-.6-119.91-15.67-171.34-41.97l2.174 1.01c-42.307-19.818-91.66-32.216-143.685-34.18l-.7-.022h-5.94c-.897-.012-1.957-.018-3.02-.018-61.387 0-117.62 22.066-161.202 58.7l.384-.314c-29.794 1.605-57.755 6.956-84.226 15.602l2.307-.652c-17.087 5.903-36.855 9.86-57.368 11.032l-.592.027h-21.914c-79.527-14.39-149.703-34.69-216.725-61.235l7.623 2.662c-8.397 5.94-16.59 12.288-24.576 18.432 64.772 27.94 140.42 50.565 219.14 64.243l6.14.882c9.216 0 19.25 1.638 29.082 1.638 23.68-.854 46.107-4.91 67.282-11.752l-1.747.488c12.493-3.482 26.42-7.373 40.96-10.24l-12.493 10.24-60.21 65.126c-6.213 5.574-10.102 13.628-10.102 22.59 0 3.803.7 7.442 1.98 10.796l-.07-.208c3.567 7.346 8.957 13.327 15.594 17.51l.175.103c17.743 10.19 39.01 16.2 61.683 16.2.78 0 1.555-.008 2.33-.022l-.116.003.663.002c8.763 0 17.3-.97 25.506-2.81l-.775.146c31.334-10.788 58.29-26.987 81.09-47.684l-.193.17c22.304-19.31 48.282-35.153 76.63-46.273l1.81-.625c6.54-1.837 14.07-2.95 21.842-3.07l.07-.002h5.734c23.063 3.84 43.3 13.893 59.507 28.364l-.114-.1c49.152 36.863 267.878 228.35 269.926 230.194 8.1 7.67 13.14 18.5 13.14 30.507 0 .58-.012 1.157-.035 1.73l.003-.082c-.866 11.915-7.573 22.092-17.243 27.763l-.165.09c-8.06 5.47-17.956 8.808-28.62 9.01h-.145c-9.392 0-18.14-2.748-25.49-7.484l.187.112s-75.776-69.427-102.4-92.365c-3.34-3.554-7.774-6.047-12.762-6.942l-.14-.02-.158-.002c-2.247 0-4.252 1.033-5.566 2.65l-.01.014c-4.3 5.325 0 12.698 6.144 17.613l87.45 88.064c6.366 6.164 10.733 14.358 12.057 23.536l.025.22c.005.23.007.5.007.773 0 15.083-8.154 28.263-20.294 35.37l-.193.106c-8.687 6.163-19.44 9.954-31.06 10.24h-.07c-9.313-.005-17.964-2.835-25.145-7.68l.16.103-12.493-12.29c-22.938-22.527-46.694-45.874-63.898-60.415-3.422-3.502-7.928-5.93-12.975-6.74l-.134-.02-.22-.002c-2.084 0-3.965.864-5.306 2.254l-.002.002c-2.048 2.252-3.277 6.143 1.638 12.697 1.42 1.8 2.895 3.405 4.482 4.893l.024.022 63.898 71.68c3.798 4.278 6.118 9.942 6.118 16.15 0 5.4-1.758 10.392-4.732 14.433l.047-.067-2.253 2.867c-1.863 2.035-3.802 3.908-5.85 5.66l-.09.074c-8.345 6.147-18.83 9.838-30.177 9.838-.335 0-.668-.003-1-.01h.05c-1.29.12-2.788.19-4.302.19s-3.012-.068-4.49-.202l.19.014c-4.83-.422-9.14-2.367-12.516-5.345l.023.02c-3.482-3.686-35.635-36.454-61.44-58.778-3.244-3.387-7.54-5.742-12.364-6.536l-.13-.016c-2.29.01-4.342 1.037-5.725 2.652l-.01.01c-5.324 5.734 2.663 14.336 5.94 17.613l54.477 60.005c-.504 1.413-1.198 2.635-2.067 3.71l.02-.024c-2.05 2.663-8.603 9.217-28.263 11.88h-7.168c-19.742-1.282-37.906-6.973-53.858-16.092l.61.32c4.667-9.98 7.39-21.674 7.39-34.002 0-44.89-36.105-81.346-80.86-81.913h-6.198c.535-3.3.84-7.1.84-10.974 0-28.824-16.916-53.696-41.36-65.232l-.44-.186c-9.98-4.627-21.643-7.4-33.934-7.577h-.063c-.134-.002-.293-.002-.453-.002-8.818 0-17.25 1.654-25.002 4.668l.47-.16c-8.333-15.97-22.322-28.028-39.248-33.653l-.483-.14c-8.97-3.56-19.357-5.72-30.22-5.937h-.09c-.147-.002-.322-.003-.496-.003-16.89 0-32.51 5.453-45.188 14.695l.22-.152c-12.64-15.94-32.002-26.072-53.732-26.072-19.04 0-36.26 7.778-48.662 20.33l-.007.007c-17-12.902-84.174-55.706-264.193-96.666-8.806-2.05-28.672-7.783-40.96-11.265-1.754 7.975-3.342 18.03-4.4 28.245l-.106 1.246 39.732 9.42c184.32 40.96 244.736 83.355 254.976 91.342-3.296 7.776-5.21 16.82-5.21 26.31 0 38.117 30.9 69.018 69.017 69.018 4.376 0 8.657-.407 12.807-1.186l-.428.067c5.738 28.055 25.487 50.45 51.46 59.83l.56.176c7.28 2.93 15.718 4.656 24.553 4.71h.022c5.61-.014 11.04-.76 16.208-2.15l-.44.102c12.773 26.54 39.073 44.733 69.716 45.667l.12.003c7.364-.06 14.395-1.407 20.905-3.825l-.426.138c12.813 29.54 41.723 49.826 75.37 49.826 22.636 0 43.127-9.18 57.954-24.02 19.76 11.663 43.286 19.093 68.424 20.462l.39.017c1.56.1 3.385.155 5.222.155s3.66-.056 5.47-.168l-.247.012c19.48-.21 36.813-9.22 48.243-23.233l.09-.115c1-1.36 1.952-2.902 2.78-4.52l.088-.19c6.595 2.105 14.19 3.37 22.06 3.48l.058.002c16.89-.38 32.32-6.336 44.594-16.09l-.152.116c13.13-8.736 22.6-22.082 26.136-37.68l.078-.412c4.346.914 9.34 1.436 14.456 1.436.174 0 .347 0 .52-.002h-.026c17.104-.2 32.906-5.612 45.936-14.716l-.265.176c19.75-11.638 32.792-32.8 32.792-57.006 0-.623-.01-1.244-.026-1.863v.09c4.548 1.022 9.777 1.618 15.14 1.64h.016c15.96-.167 30.752-5.038 43.09-13.29l-.287.182c16.663-10.307 28.012-27.836 29.68-48.108l.015-.226c.122-1.498.192-3.243.192-5.005 0-12.62-3.578-24.403-9.774-34.392l.16.28c79.2-33.72 173.916-64.407 271.737-86.98l11.912-2.314c-.917-11.294-2.295-21.388-4.177-31.303l.286 1.813c-114.42 25.593-214.19 58.976-309.165 101.188l10.363-4.112zM971.57 780.334h-.25c-29.747 0-54.008-23.488-55.246-52.93l-.004-.113c0-2.458 0-9.42-6.144-9.42-2.7.307-5.057 1.585-6.75 3.47l-.01.01c-6.87 7.29-16.48 11.935-27.174 12.287h-.063c-6.54-.122-12.718-1.542-18.33-4.01l.307.12c-31.744-12.902-32.154-34.61-30.925-43.418.152-.582.24-1.25.24-1.94 0-1.73-.55-3.33-1.485-4.638l.016.024-2.048-1.843h-2.048c-2.127.157-4.035.982-5.543 2.264l.014-.012c-7.36 5.726-16.647 9.295-26.755 9.624l-.074.002c-5.387-.014-10.523-1.066-15.226-2.965l.275.097c-22.62-8.313-38.463-29.67-38.463-54.725 0-4.485.508-8.852 1.47-13.045l-.076.39c.38-.745.604-1.626.604-2.56s-.223-1.813-.618-2.592l.015.033-2.866-2.458-2.662 2.662c-7.8 7.547-18.444 12.198-30.173 12.198-23.98 0-43.42-19.44-43.42-43.418s19.44-43.418 43.42-43.418c22.06 0 40.28 16.454 43.05 37.76l.024.218 1.434 11.674 6.35-9.83c10.89-16.672 29.463-27.537 50.573-27.537 6.667 0 13.08 1.082 19.074 3.083l-.425-.123c17.68 5.663 30.33 21.784 30.718 40.915v.045c0 5.734 4.507 5.94 5.326 5.94 1.997-.2 3.73-1.19 4.904-2.65l.01-.013c7.993-8.337 19.22-13.518 31.658-13.518h.308-.016c8.708.158 16.923 2.103 24.347 5.482l-.385-.157c40.96 17.408 22.323 69.427 22.118 69.837-3.482 8.602-3.686 12.288 0 14.54h1.434c2.956-.326 5.658-1.048 8.176-2.118l-.19.07c6.393-2.584 13.793-4.274 21.53-4.7l.18-.01c1.01-.064 2.188-.1 3.376-.1 30.765 0 55.706 24.94 55.706 55.705s-24.94 55.705-55.706 55.705c-1.188 0-2.367-.037-3.536-.11l.16.008z"/></svg>